<?xml version="1.0" standalone="no"?>
<!DOCTYPE svg PUBLIC "-//W3C//DTD SVG 20010904//EN" "http://www.w3.org/TR/2001/REC-SVG-20010904/DTD/svg10.dtd">
<!-- Created using Krita: https://krita.org -->
<svg xmlns="http://www.w3.org/2000/svg" 
    xmlns:xlink="http://www.w3.org/1999/xlink"
    xmlns:krita="http://krita.org/namespaces/svg/krita"
    xmlns:sodipodi="http://sodipodi.sourceforge.net/DTD/sodipodi-0.dtd"
    width="1728pt"
    height="1036.8pt"
    viewBox="0 0 1728 1036.8">
<defs/>
<ellipse id="shape0" transform="translate(859.680000053429, 89.2800002760536)" rx="271.440002141642" ry="255.59999984639" cx="271.440002141642" cy="255.59999984639" fill="#fe8b00" fill-rule="evenodd"/><path id="shape1" transform="matrix(0.984522142759874 -0.175260236264552 0.175260236264552 0.984522142759874 741.529385540139 310.071991853542)" fill="none" stroke="#fe8b00" stroke-width="28.8" stroke-linecap="square" stroke-linejoin="bevel" d="M65.34 0C36.18 5.4 18 9.9 10.8 13.5C3.6 17.1 0 18.9 0 18.9" sodipodi:nodetypes="czc"/><path id="shape2" transform="matrix(0.985562169451568 -0.169313939608999 0.169313939608999 0.985562169451568 652.053034400223 393.123944193022)" fill="none" stroke="#fe8b00" stroke-width="28.8" stroke-linecap="square" stroke-linejoin="bevel" d="M33.48 0C21.96 11.52 13.5 21.78 8.1 30.78C2.7 39.78 0 44.28 0 44.28" sodipodi:nodetypes="czc"/><path id="shape3" transform="matrix(0.966956124341901 -0.254942843786005 0.254942843786005 0.966956124341901 643.602385775844 518.971486494951)" fill="none" stroke="#fe8b00" stroke-width="28.8" stroke-linecap="square" stroke-linejoin="bevel" d="M4.87758 0C2.71758 10.8 -0.882416 27.36 0.197584 42.12C0.917584 51.96 1.27758 56.88 1.27758 56.88" sodipodi:nodetypes="czc"/><path id="shape4" transform="matrix(0.824153923166214 -0.566365880795926 0.566365880795926 0.824153923166214 880.762112414872 733.519777263608)" fill="none" stroke="#fe8b00" stroke-width="28.8" stroke-linecap="square" stroke-linejoin="bevel" d="M0 0C17.76 14.4 27.6 22.2 29.52 23.4C31.44 24.6 39.36 29.28 53.28 37.44" sodipodi:nodetypes="czc"/><path id="shape5" transform="matrix(0.938993735366916 -0.34393424508428 0.34393424508428 0.938993735366916 1050.13380005792 685.304216826741)" fill="none" stroke="#fe8b00" stroke-width="28.8" stroke-linecap="square" stroke-linejoin="bevel" d="M0 16.2C25.68 11.4 40.32 8.4 43.92 7.2C47.52 6 53.64 3.6 62.28 0" sodipodi:nodetypes="czc"/><path id="shape01" transform="matrix(0.997522567615723 0.070347189690576 -0.070347189690576 0.997522567615723 712.614254595208 655.175359773262)" fill="none" stroke="#fe8b00" stroke-width="28.8" stroke-linecap="square" stroke-linejoin="bevel" d="M0 0C17.76 14.4 27.6 22.2 29.52 23.4C31.44 24.6 39.36 29.28 53.28 37.44" sodipodi:nodetypes="czc"/><path id="shape6" transform="matrix(0.974678649471823 -0.22361021949765 0.22361021949765 0.974678649471823 481.143710959339 639.740273658625)" fill="none" stroke="#fe8b00" stroke-width="28.8" stroke-linecap="square" stroke-linejoin="bevel" d="M13.7509 0C7.90763 11.9733 4.17743 20.4804 2.56028 25.5213C0.943121 30.5622 0.0896953 33.3527 0 33.8928" sodipodi:nodetypes="czc"/><path id="shape7" transform="matrix(0.904108201063537 -0.427303593209393 0.427303593209393 0.904108201063537 515.516480354641 751.576083094281)" fill="none" stroke="#fe8b00" stroke-width="28.8" stroke-linecap="square" stroke-linejoin="bevel" d="M0 0C3.24945 16.7382 5.14457 25.8271 5.68539 27.2668C6.2262 28.7065 9.02016 35.7249 14.0673 48.3221" sodipodi:nodetypes="czc"/><path id="shape02" transform="matrix(-0.243642625167608 -0.969865078864808 0.969865078864808 -0.243642625167608 642.557586520386 845.586694606026)" fill="none" stroke="#fe8b00" stroke-width="28.8" stroke-linecap="square" stroke-linejoin="bevel" d="M13.7509 0C7.90763 11.9733 4.17743 20.4804 2.56028 25.5213C0.943121 30.5622 0.0896953 33.3527 0 33.8928" sodipodi:nodetypes="czc"/><path id="shape03" transform="matrix(-0.727145988475972 -0.686482855899055 0.686482855899055 -0.727145988475972 781.082901734635 831.778368343637)" fill="none" stroke="#fe8b00" stroke-width="28.8" stroke-linecap="square" stroke-linejoin="bevel" d="M13.7509 0C7.90763 11.9733 4.17743 20.4804 2.56028 25.5213C0.943121 30.5622 0.0896953 33.3527 0 33.8928" sodipodi:nodetypes="czc"/><path id="shape04" transform="matrix(0.859698724182985 0.510801432689992 -0.510801432689992 0.859698724182985 557.929051046969 525.16637491271)" fill="none" stroke="#fe8b00" stroke-width="28.8" stroke-linecap="square" stroke-linejoin="bevel" d="M13.7509 0C7.90763 11.9733 4.17743 20.4804 2.56028 25.5213C0.943121 30.5622 0.0896953 33.3527 0 33.8928" sodipodi:nodetypes="czc"/>
</svg>
