<?xml version="1.0" standalone="no"?>
<!DOCTYPE svg PUBLIC "-//W3C//DTD SVG 20010904//EN" "http://www.w3.org/TR/2001/REC-SVG-20010904/DTD/svg10.dtd">
<!-- Created using Krita: https://krita.org -->
<svg xmlns="http://www.w3.org/2000/svg" 
    xmlns:xlink="http://www.w3.org/1999/xlink"
    xmlns:krita="http://krita.org/namespaces/svg/krita"
    xmlns:sodipodi="http://sodipodi.sourceforge.net/DTD/sodipodi-0.dtd"
    width="1728pt"
    height="1036.8pt"
    viewBox="0 0 1728 1036.8">
<defs/>
<rect id="shape0" transform="matrix(0.999999912923134 0.000417317294322289 -0.000417317294322289 0.999999912923134 695.195928114073 809.212262883564)" fill="#999999" fill-rule="evenodd" stroke="#808080" stroke-width="28.8" stroke-linecap="square" stroke-linejoin="bevel" width="290.16208427743" height="177.12" rx="37.4278308528043" ry="44.1661809802407"/><rect id="shape1" transform="matrix(0.999999912923134 0.000417317294322289 -0.000417317294322289 0.999999912923134 695.195928114073 53.314383680703)" fill="#999999" fill-rule="evenodd" stroke="#808080" stroke-width="28.8" stroke-linecap="square" stroke-linejoin="bevel" width="290.16208427743" height="177.12" rx="37.4278308528043" ry="44.1661809802407"/><rect id="shape2" transform="matrix(0.999999912923134 0.000417317294322289 -0.000417317294322289 0.999999912923134 1133.40584161688 389.108401980237)" fill="#999999" fill-rule="evenodd" stroke="#808080" stroke-width="28.8" stroke-linecap="square" stroke-linejoin="bevel" width="215.716002545928" height="258.49319652978" rx="27.8250760282401" ry="64.4571889120099"/><rect id="shape3" transform="matrix(0.999999912923134 0.000417317294322289 -0.000417317294322289 0.999999912923134 326.842281597372 389.108401980236)" fill="#999999" fill-rule="evenodd" stroke="#808080" stroke-width="28.8" stroke-linecap="square" stroke-linejoin="bevel" width="215.716002545928" height="258.49319652978" rx="27.8250760282401" ry="64.4571889120099"/><rect id="shape4" transform="matrix(0.680169105812182 -0.733055241778314 0.733055241778314 0.680169105812182 959.60122605264 239.556332437666)" fill="#999999" fill-rule="evenodd" stroke="#808080" stroke-width="28.8" stroke-linecap="square" stroke-linejoin="bevel" width="215.716002545928" height="258.49319652978" rx="27.8250760282401" ry="64.4571889120099"/><rect id="shape5" transform="matrix(-0.706067836180185 -0.708144201919258 0.708144201919258 -0.706067836180185 536.69764420132 419.275886581581)" fill="#999999" fill-rule="evenodd" stroke="#808080" stroke-width="28.8" stroke-linecap="square" stroke-linejoin="bevel" width="215.716002545928" height="258.49319652978" rx="27.8250760282401" ry="64.4571889120099"/><rect id="shape6" transform="matrix(0.719837651841896 0.694142460155522 -0.694142460155522 0.719837651841896 1144.10310395236 624.814611398974)" fill="#999999" fill-rule="evenodd" stroke="#808080" stroke-width="28.8" stroke-linecap="square" stroke-linejoin="bevel" width="215.716002545928" height="258.49319652978" rx="27.8250760282401" ry="64.4571889120099"/><rect id="shape7" transform="matrix(-0.717248290405635 0.696817687713377 -0.696817687713377 -0.717248290405635 708.690090670537 810.264536151421)" fill="#999999" fill-rule="evenodd" stroke="#808080" stroke-width="28.8" stroke-linecap="square" stroke-linejoin="bevel" width="215.716002545928" height="258.49319652978" rx="27.8250760282401" ry="64.4571889120099"/><ellipse id="shape8" transform="matrix(-1 0 0 1 1212.1199975439 167.040030095185)" rx="371.519959297496" ry="351.359969904815" cx="371.519959297496" cy="351.359969904815" fill="#999999" fill-rule="evenodd" stroke="#808080" stroke-width="28.8" stroke-linecap="square" stroke-linejoin="bevel"/><ellipse id="shape9" transform="matrix(1.25782040857876 0.00384347045661996 -0.00384347045661996 1.25782040857876 637.465615997637 341.180754349943)" rx="161.64" ry="140.4" cx="161.64" cy="140.4" fill="#ffffff" fill-rule="evenodd" stroke="#ffffff" stroke-width="28.8" stroke-linecap="square" stroke-linejoin="bevel"/><ellipse id="shape10" transform="matrix(1.25782040857876 0.00384347045661996 -0.00384347045661996 1.25782040857876 750.082785439227 533.520373856501)" rx="55.44" ry="12.24" cx="55.44" cy="12.24" fill="#ffffff" fill-rule="evenodd" stroke="#ffffff" stroke-width="28.8" stroke-linecap="square" stroke-linejoin="bevel"/>
</svg>
