<?xml version="1.0" standalone="no"?>
<!DOCTYPE svg PUBLIC "-//W3C//DTD SVG 20010904//EN" "http://www.w3.org/TR/2001/REC-SVG-20010904/DTD/svg10.dtd">
<!-- Created using Krita: https://krita.org -->
<svg xmlns="http://www.w3.org/2000/svg" 
    xmlns:xlink="http://www.w3.org/1999/xlink"
    xmlns:krita="http://krita.org/namespaces/svg/krita"
    xmlns:sodipodi="http://sodipodi.sourceforge.net/DTD/sodipodi-0.dtd"
    width="1728pt"
    height="1036.8pt"
    viewBox="0 0 1728 1036.8">
<defs/>
<ellipse id="shape0" transform="translate(758.16, 126)" rx="80.28" ry="20.16" cx="80.28" cy="20.16" fill="#999999" fill-rule="evenodd"/><path id="shape1" transform="translate(763.31281546748, 114.827892104862)" sodipodi:type="arc" sodipodi:rx="88.2890372473929" sodipodi:ry="32.76" sodipodi:cx="88.2890372473929" sodipodi:cy="32.76" sodipodi:start="3.5527136788005e-15" sodipodi:end="7.105427357601e-15" d="M176.578 32.76C176.578 14.6672 137.05 1.18027e-13 88.289 0C39.5283 -1.18027e-13 3.64379e-13 14.6672 0 32.76C-3.64379e-13 50.8528 39.5283 65.52 88.289 65.52C137.05 65.52 176.578 50.8528 176.578 32.76L88.289 32.76Z" fill="#4d2689" fill-rule="evenodd"/><path id="shape2" transform="translate(752.515739004692, 135.912537304061)" fill="#4d2689" fill-rule="evenodd" d="M31.6664 0.709125L15.8259 0L4.6711 7.56766L0 20.5309C1.6856 28.6897 2.76939 34.209 3.25137 37.0886C3.97433 41.4081 16.217 45.3597 19.8138 40.6773C23.4106 35.9948 24.4894 34.1941 29.1652 28.0708C33.841 21.9476 36.7222 23.7457 37.0775 16.9054C37.4328 10.0652 37.4328 10.0652 31.6664 0.709125Z" sodipodi:nodetypes="cccczzzcc"/><rect id="shape01" transform="matrix(-0.642790969233577 -0.76604162411176 0.76604162411176 -0.642790969233577 1127.45822248172 739.57472322088)" fill="#4d2689" fill-rule="evenodd" stroke-opacity="0" stroke="#000000" stroke-width="0" stroke-linecap="square" stroke-linejoin="bevel" width="656.808645103103" height="251.708359711164" rx="117.093586207568" ry="105.302556306733"/><rect id="shape02" transform="matrix(0.653501697066292 -0.756925050405572 0.756925050405572 0.653501697066292 391.566786874053 559.956837535902)" fill="#4d2689" fill-rule="evenodd" stroke-opacity="0" stroke="#000000" stroke-width="0" stroke-linecap="square" stroke-linejoin="bevel" width="631.996898701742" height="251.708359711164" rx="112.670233397174" ry="105.302556306733"/><rect id="shape03" transform="translate(560.881492766685, 336.262242731141)" fill="#4d2689" fill-rule="evenodd" stroke-opacity="0" stroke="#000000" stroke-width="0" stroke-linecap="square" stroke-linejoin="bevel" width="588.24" height="559.44" rx="80.4000513643902" ry="80.4000513643902"/><ellipse id="shape3" transform="translate(781.811599293749, 619.164)" rx="73.1884007062513" ry="130.68" cx="73.1884007062513" cy="130.68" fill="#ffffff" fill-rule="evenodd"/>
</svg>
