<?xml version="1.0" standalone="no"?>
<!DOCTYPE svg PUBLIC "-//W3C//DTD SVG 20010904//EN"
 "http://www.w3.org/TR/2001/REC-SVG-20010904/DTD/svg10.dtd">
<svg version="1.0" xmlns="http://www.w3.org/2000/svg"
 width="800.000000pt" height="600.000000pt" viewBox="0 0 800.000000 600.000000"
 preserveAspectRatio="xMidYMid meet">

<g transform="translate(0.000000,600.000000) scale(0.100000,-0.100000)"
fill="#000000" stroke="none">
<path d="M0 3000 l0 -3000 4000 0 4000 0 0 3000 0 3000 -4000 0 -4000 0 0
-3000z m1582 2646 c8 -7 508 -298 1111 -647 l1097 -633 0 -531 c0 -528 0 -530
21 -543 12 -8 18 -9 14 -3 -9 15 18 14 34 -1 11 -10 13 -10 7 0 -4 7 -2 12 6
12 8 0 20 -6 27 -12 11 -11 12 -10 7 0 -6 9 1 12 27 9 42 -5 59 -15 51 -29 -4
-7 -2 -8 5 -4 6 4 9 12 6 17 -13 20 25 8 41 -13 11 -16 15 -17 11 -5 -9 24 12
21 42 -5 14 -13 19 -15 12 -5 -11 14 -11 17 1 17 19 0 50 -34 41 -45 -5 -4 -2
-5 5 -1 11 6 11 11 0 24 -11 14 -10 15 7 8 11 -4 31 -10 45 -12 13 -3 30 -10
37 -16 7 -6 13 -8 13 -4 0 4 13 0 30 -9 16 -8 32 -15 35 -15 3 0 20 -7 38 -17
17 -9 34 -17 37 -18 3 0 23 -11 45 -24 22 -13 42 -23 45 -23 10 -1 86 -57 109
-82 13 -14 27 -24 31 -21 3 2 49 -39 101 -91 51 -51 90 -94 85 -94 -5 0 10
-20 32 -44 41 -45 68 -86 56 -86 -4 0 2 -10 13 -22 11 -13 26 -34 33 -48 11
-22 8 -20 -24 9 -20 19 -36 32 -36 28 0 -4 18 -24 41 -44 35 -32 70 -82 69
-98 0 -3 7 -19 15 -35 9 -17 13 -30 9 -30 -4 0 -2 -6 4 -13 6 -7 13 -24 16
-37 2 -14 8 -34 12 -45 6 -18 4 -17 -22 5 -26 23 -26 22 4 -11 38 -41 45 -73
9 -43 -14 12 -13 8 6 -12 34 -38 37 -67 4 -36 -18 17 -24 19 -24 7 0 -8 3 -13
5 -10 8 8 52 -37 52 -53 0 -12 -5 -11 -22 4 l-23 19 23 -26 c12 -14 22 -31 22
-39 0 -9 -6 -8 -22 6 -15 12 -14 8 5 -12 31 -35 39 -68 9 -41 -10 10 -22 17
-27 17 -4 0 4 -9 19 -21 14 -11 26 -28 26 -36 0 -14 -2 -14 -18 0 -10 10 -22
17 -27 17 -4 0 4 -9 19 -21 14 -11 26 -28 26 -36 0 -14 -2 -14 -18 0 -10 10
-22 17 -27 17 -4 0 4 -9 19 -21 14 -11 26 -28 26 -36 0 -14 -2 -14 -18 0 -10
10 -22 17 -27 17 -4 0 4 -9 19 -21 14 -11 26 -28 26 -36 0 -14 -2 -14 -18 0
-10 10 -22 17 -26 17 -4 0 6 -11 21 -24 15 -13 25 -28 20 -32 -4 -4 -13 -2
-19 4 -7 7 -17 12 -22 12 -6 0 0 -7 12 -16 12 -8 22 -22 22 -31 0 -13 -3 -14
-17 -2 -16 12 -16 12 0 -7 24 -29 14 -82 -12 -62 -11 8 -10 5 3 -10 25 -29 13
-41 -16 -16 -23 19 -23 18 0 -7 22 -25 23 -30 11 -68 -10 -35 -14 -39 -28 -29
-12 10 -12 8 2 -8 20 -24 11 -40 -12 -22 -12 10 -12 7 2 -8 22 -27 10 -39 -17
-17 -18 15 -18 14 2 -8 24 -27 19 -47 -7 -26 -14 11 -14 10 -3 -5 11 -14 11
-24 2 -53 -13 -38 -19 -42 -40 -23 -8 7 -7 4 3 -8 20 -24 11 -39 -12 -22 -13
10 -14 10 -4 -2 15 -16 16 -30 4 -49 -8 -13 -12 -13 -28 -1 -17 14 -17 14 0
-6 20 -24 11 -40 -12 -21 -14 11 -14 10 -2 -6 20 -25 5 -34 -21 -11 l-23 19
23 -26 c24 -27 19 -47 -7 -26 -14 11 -14 10 -2 -6 18 -23 7 -34 -16 -16 -17
13 -17 13 0 -7 16 -20 16 -21 -1 -37 -15 -13 -21 -14 -32 -4 -12 10 -12 9 -1
-6 20 -26 5 -33 -21 -11 -23 19 -23 19 -5 -2 9 -11 17 -25 17 -30 0 -5 -41
-50 -92 -101 l-92 -93 -26 23 -25 22 19 -23 c23 -26 14 -41 -11 -21 -16 13
-17 12 -4 -4 20 -25 5 -34 -21 -11 l-23 19 18 -21 c16 -19 16 -22 1 -34 -13
-12 -19 -12 -37 0 -20 12 -21 12 -8 -4 13 -15 13 -19 0 -27 -19 -12 -36 -11
-44 1 -3 6 -11 10 -18 10 -6 0 -2 -7 9 -15 16 -13 17 -16 4 -25 -22 -14 -38
-12 -49 7 -6 10 -11 13 -11 6 0 -6 5 -15 10 -18 6 -4 8 -11 4 -16 -4 -6 -11
-6 -20 2 -12 10 -13 9 -9 -4 10 -24 -35 -34 -52 -11 -7 10 -13 13 -13 7 0 -7
5 -15 10 -18 6 -4 8 -11 4 -16 -4 -6 -11 -6 -20 2 -7 6 -11 15 -8 20 3 5 -2 6
-11 3 -14 -6 -14 -8 2 -19 10 -8 15 -17 11 -21 -5 -4 -18 1 -30 12 -13 10 -17
12 -10 4 19 -22 15 -27 -39 -45 -48 -16 -51 -16 -72 1 -19 17 -20 17 -8 1 22
-28 3 -33 -26 -6 -23 19 -24 20 -10 2 11 -12 14 -23 8 -27 -5 -4 -17 4 -25 16
-9 12 -16 18 -16 12 0 -5 5 -15 11 -21 16 -16 -39 -27 -58 -12 -8 7 -13 8 -12
3 4 -23 -3 -26 -23 -8 -19 15 -20 16 -9 2 18 -25 -5 -25 -33 -1 -17 15 -18 15
-8 2 11 -14 9 -18 -14 -23 -20 -5 -33 -1 -53 16 -26 23 -26 23 -7 1 26 -31 1
-31 -33 0 l-26 22 19 -22 c26 -31 1 -31 -33 0 l-26 22 19 -22 c26 -31 1 -31
-33 0 l-26 22 19 -22 c26 -31 1 -31 -33 0 l-26 22 19 -22 c24 -29 7 -30 -30
-1 -21 16 -25 17 -14 4 13 -17 12 -18 -25 -12 -44 7 -68 23 -58 39 3 6 1 7 -6
3 -9 -6 -9 -11 1 -24 11 -14 10 -15 -7 -8 -11 4 -31 10 -45 13 -14 2 -36 14
-50 26 -14 13 -19 15 -11 4 11 -14 11 -17 -1 -17 -8 0 -18 3 -22 7 -3 4 -16 8
-29 10 -12 2 -35 16 -51 31 -17 15 -24 19 -17 10 24 -32 -7 -20 -51 19 -24 21
-34 28 -24 15 24 -28 13 -28 -27 0 -17 12 -37 23 -45 24 -7 1 -28 14 -47 29
-19 14 -38 26 -42 26 -29 3 -220 182 -287 269 -24 30 -42 63 -40 73 1 9 -2 15
-6 12 -9 -6 -51 47 -54 68 -1 7 -12 27 -25 45 -13 18 -21 36 -17 39 3 3 -4 17
-14 31 -20 25 -27 47 -12 38 5 -3 9 1 9 9 0 8 -4 12 -8 10 -10 -7 -28 18 -32
43 -2 12 -6 25 -10 28 -10 10 -9 36 1 30 5 -3 9 1 9 9 0 8 -5 13 -10 12 -5 -1
-13 8 -18 21 -6 15 -5 22 4 22 8 0 8 3 -2 9 -7 5 -15 23 -17 41 -2 19 -6 36
-9 38 -3 3 1 12 8 20 9 13 9 14 0 8 -8 -4 -13 -1 -13 9 0 9 4 14 8 11 5 -3 9
1 9 9 0 8 -4 12 -8 10 -13 -9 -16 20 -14 140 3 157 3 167 13 161 5 -3 9 1 9 9
0 8 -4 12 -9 9 -4 -3 -8 0 -8 5 0 6 3 11 8 11 4 0 8 14 8 31 1 17 7 35 15 40
12 7 11 9 -1 9 -11 0 -11 3 -3 8 6 4 11 14 11 22 -2 34 2 61 10 57 4 -3 8 11
9 32 l2 36 -495 285 c-273 157 -515 297 -540 313 l-44 27 0 1280 c0 781 4
1280 9 1280 5 0 16 -6 23 -14z"/>
<path d="M1740 4303 l0 -1088 173 -101 c94 -56 313 -184 485 -284 l314 -182
19 21 c11 11 19 23 19 26 1 18 15 35 25 31 8 -3 11 2 9 12 -5 20 49 85 61 74
4 -4 6 -1 4 5 -2 7 -182 115 -399 241 -537 310 -540 312 -540 322 0 6 73 141
86 158 2 3 313 -174 956 -546 26 -15 29 -15 52 7 13 13 29 20 35 16 6 -3 11
-1 11 5 0 14 51 56 62 52 5 -1 8 3 8 9 0 6 7 9 15 5 8 -3 14 0 12 6 -3 17 56
47 71 35 9 -7 11 -6 7 4 -8 20 59 51 75 35 8 -8 10 -7 5 5 -5 13 2 20 29 29
20 6 40 9 46 5 6 -4 9 -1 8 6 -2 7 3 14 10 15 6 1 14 3 17 4 3 1 10 4 15 5 6
1 11 3 13 5 1 1 10 3 19 5 9 2 33 9 54 15 30 10 38 10 45 -1 7 -11 9 -10 9 5
0 12 5 16 15 12 13 -5 15 55 13 520 l-3 526 -900 519 c-495 286 -912 527 -927
535 l-28 15 0 -1088z m883 212 c348 -201 638 -369 646 -374 11 -7 6 -21 -22
-72 -20 -35 -42 -72 -50 -83 -12 -17 -50 3 -593 317 -318 184 -609 352 -645
373 l-66 39 46 82 c25 45 48 83 49 83 2 0 288 -164 635 -365z m0 -700 c348
-201 638 -369 646 -374 11 -7 6 -21 -22 -72 -20 -35 -42 -72 -50 -83 -12 -17
-50 3 -593 317 -318 184 -609 352 -645 373 l-66 39 46 82 c25 45 48 83 49 83
2 0 288 -164 635 -365z"/>
<path d="M3943 3275 c0 -8 4 -12 9 -9 5 3 6 10 3 15 -9 13 -12 11 -12 -6z"/>
<path d="M4196 3226 c3 -8 13 -17 22 -21 13 -5 13 -2 -3 15 -21 24 -26 25 -19
6z"/>
<path d="M4259 3207 c6 -8 7 -18 3 -22 -4 -5 -1 -5 6 -1 10 6 10 11 1 22 -6 8
-14 14 -16 14 -3 0 0 -6 6 -13z"/>
<path d="M4320 3186 c0 -2 8 -10 18 -17 15 -13 16 -12 3 4 -13 16 -21 21 -21
13z"/>
<path d="M4408 3137 c12 -13 19 -27 15 -32 -5 -4 -2 -5 5 -1 11 6 8 13 -9 32
-12 13 -25 24 -27 24 -3 0 4 -10 16 -23z"/>
<path d="M4493 3092 c10 -10 14 -22 10 -27 -5 -4 -3 -5 3 -2 14 8 47 -26 37
-38 -5 -4 -2 -5 5 0 10 5 4 17 -24 46 -38 39 -61 55 -31 21z"/>
<path d="M4705 2920 c49 -49 92 -90 95 -90 2 0 -36 41 -85 90 -49 50 -92 90
-95 90 -2 0 36 -40 85 -90z"/>
<path d="M4800 2783 c0 -6 7 -14 16 -17 9 -3 12 -11 8 -18 -4 -7 -3 -10 1 -5
5 4 21 -5 37 -20 15 -15 28 -25 28 -22 0 3 -20 25 -45 49 -25 24 -45 39 -45
33z"/>
<path d="M3740 2739 c0 -3 -12 -6 -27 -5 -16 1 -43 -5 -62 -12 -18 -7 -35 -11
-38 -8 -7 7 -206 -93 -215 -108 -4 -6 -8 -8 -8 -4 0 3 -29 -23 -66 -59 -65
-66 -124 -142 -124 -162 0 -6 -5 -11 -12 -11 -6 0 -8 -3 -5 -6 4 -4 -1 -21
-10 -38 -30 -59 -33 -66 -33 -86 0 -11 -3 -20 -7 -20 -5 0 -9 -21 -11 -46 -1
-26 -6 -51 -9 -58 -10 -14 -11 -149 -2 -156 4 -3 8 -23 10 -45 1 -22 6 -45 10
-50 4 -6 9 -22 11 -35 2 -14 9 -35 16 -47 7 -13 9 -23 5 -23 -4 0 -3 -4 2 -8
15 -10 47 -72 39 -72 -4 0 1 -7 12 -15 10 -8 15 -15 10 -15 -6 0 -1 -7 10 -15
10 -8 16 -15 12 -15 -9 0 121 -129 144 -141 10 -5 16 -14 13 -19 -3 -6 1 -7 9
-4 9 4 18 -1 22 -10 3 -9 10 -13 15 -10 5 3 9 0 9 -6 0 -6 5 -8 10 -5 6 3 10
1 10 -5 0 -6 5 -8 10 -5 6 3 10 1 10 -5 0 -6 5 -8 10 -5 6 3 10 1 10 -5 0 -6
5 -8 10 -5 6 3 10 1 10 -5 0 -6 4 -9 9 -6 5 3 26 -1 47 -10 21 -9 51 -18 66
-20 15 -2 43 -7 60 -10 49 -8 168 -10 168 -2 0 3 14 5 30 4 17 -1 30 1 30 4 0
7 11 9 55 13 14 1 25 6 25 10 0 5 5 5 10 2 6 -3 10 -1 10 6 0 7 3 10 6 6 8 -7
126 51 136 67 4 6 8 7 8 2 0 -6 6 -2 13 9 8 10 19 15 26 11 6 -4 10 -3 9 2 -2
5 21 33 50 61 52 52 132 161 132 180 0 6 5 11 12 11 6 0 8 3 5 7 -4 3 0 17 8
30 9 13 13 23 10 23 -3 0 0 10 7 23 7 12 14 35 16 52 2 16 7 32 11 35 11 7 11
263 0 276 -5 6 -10 26 -11 45 -2 19 -7 37 -11 40 -4 3 -9 16 -10 27 -1 12 -4
22 -7 22 -7 0 -35 63 -32 73 1 4 -2 7 -8 7 -5 0 -10 7 -10 15 0 8 -4 15 -10
15 -5 0 -10 7 -10 15 0 8 -4 15 -10 15 -5 0 -10 4 -10 9 0 15 -130 140 -162
157 -16 9 -26 20 -22 26 4 6 3 8 -3 5 -6 -4 -48 11 -94 32 -46 22 -87 37 -91
35 -4 -3 -8 -2 -8 3 0 4 -10 9 -22 10 -13 1 -39 4 -58 7 -52 8 -170 12 -170 5z
m50 -515 l0 -426 -32 20 c-18 11 -125 73 -238 137 -219 126 -300 179 -300 199
0 6 16 44 35 84 l35 73 77 -43 c43 -23 112 -62 153 -85 l75 -43 3 225 c3 256
-7 231 102 266 100 32 90 76 90 -407z"/>
<path d="M4921 2578 c2 -2 18 -14 34 -28 l30 -25 -24 28 c-14 15 -29 27 -34
27 -6 0 -8 -1 -6 -2z"/>
<path d="M4980 2485 c13 -14 26 -25 28 -25 3 0 -5 11 -18 25 -13 14 -26 25
-28 25 -3 0 5 -11 18 -25z"/>
<path d="M4983 2435 c0 -8 3 -13 5 -10 3 3 15 -3 26 -12 15 -13 14 -10 -3 10
-29 32 -28 31 -28 12z"/>
<path d="M5040 1866 c0 -2 8 -10 18 -17 15 -13 16 -12 3 4 -13 16 -21 21 -21
13z"/>
<path d="M5020 1766 c0 -2 8 -10 18 -17 15 -13 16 -12 3 4 -13 16 -21 21 -21
13z"/>
<path d="M5001 1737 c2 -1 13 -9 24 -17 19 -14 19 -14 6 3 -7 9 -18 17 -24 17
-6 0 -8 -1 -6 -3z"/>
<path d="M4943 1555 c0 -8 3 -13 5 -10 3 3 12 -1 21 -7 10 -8 9 -4 -3 10 -23
26 -23 26 -23 7z"/>
<path d="M2735 1421 c-3 -5 -2 -12 3 -15 5 -3 9 1 9 9 0 17 -3 19 -12 6z"/>
<path d="M4820 1326 c0 -2 8 -10 18 -17 15 -13 16 -12 3 4 -13 16 -21 21 -21
13z"/>
<path d="M2805 1300 c22 -24 22 -24 22 -5 0 8 -4 12 -9 9 -4 -3 -8 0 -8 5 0 6
-5 11 -12 11 -6 0 -3 -9 7 -20z"/>
<path d="M4761 1257 c2 -1 13 -9 24 -17 19 -14 19 -14 6 3 -7 9 -18 17 -24 17
-6 0 -8 -1 -6 -3z"/>
<path d="M3079 1026 c29 -30 28 -30 28 -11 0 8 -4 12 -9 9 -4 -3 -8 -1 -8 4 0
6 -8 13 -17 16 -13 5 -11 0 6 -18z"/>
<path d="M3180 966 c0 -2 8 -10 18 -17 15 -13 16 -12 3 4 -13 16 -21 21 -21
13z"/>
<path d="M4420 966 c0 -2 8 -10 18 -17 15 -13 16 -12 3 4 -13 16 -21 21 -21
13z"/>
<path d="M4340 926 c0 -2 8 -10 18 -17 15 -13 16 -12 3 4 -13 16 -21 21 -21
13z"/>
<path d="M3401 874 c-1 -6 5 -17 12 -23 10 -8 14 -7 14 4 0 8 -4 12 -8 9 -4
-2 -10 2 -12 8 -4 8 -6 9 -6 2z"/>
<path d="M3520 831 c0 -6 4 -13 10 -16 6 -3 7 1 4 9 -7 18 -14 21 -14 7z"/>
<path d="M3900 806 c0 -2 8 -10 18 -17 15 -13 16 -12 3 4 -13 16 -21 21 -21
13z"/>
</g>
</svg>
